PathFileType        4      (X/Y/Z)      C:\Users\pc\Desktop\IMUTRC\Sujet_04\Sujet_04_velo_100.trc         
DataRate	CameraRate	NumFrames	NumMarkers	Units	OrigDataRate	OrigDataStartFrame	OrigNumFrames
60.0	60.0	4	64	mm	60.0	488	975
Frame#	Time	pHipOrigin			pRightASI			pLeftASI			pRightCSI			pLeftCSI			pRightIschialTub			pLeftIschialTub			pSacrum			pL5SpinalProcess			pL3SpinalProcess			pT12SpinalProcess			pIJ			pT4SpinalProcess			pT8SpinalProcess			pPX			pC7SpinalProcess			pTopOfHead			pRightAuricularis			pLeftAuricularis			pBackOfHead			pRightAcromion			pLeftAcromion			pRightArmLatEpicondyle			pRightArmMedEpicondyle			pLeftArmLatEpicondyle			pLeftArmMedEpicondyle			pRightUlnarStyloid			pRightRadialStyloid			pRightOlecranon			pLeftUlnarStyloid			pLeftRadialStyloid			pLeftOlecranon			pRightTopOfHand			pRightPinky			pRightBallHand			pLeftTopOfHand			pLeftPinky			pLeftBallHand			pRightGreaterTrochanter			pRightKneeLatEpicondyle			pRightKneeMedEpicondyle			pRightPatella			pLeftGreaterTrochanter			pLeftKneeLatEpicondyle			pLeftKneeMedEpicondyle			pLeftPatella			pRightTibialTub			pRightLatMalleolus			pRightMedMalleolus			pLeftTibialTub			pLeftLatMalleolus			pLeftMedMalleolus			pRightHeelFoot			pRightFirstMetatarsal			pRightFifthMetatarsal			pRightPivotFoot			pRightHeelCenter			pRightToe			pLeftHeelFoot			pLeftFirstMetatarsal			pLeftFifthMetatarsal			pLeftPivotFoot			pLeftHeelCenter			pLeftToe			
		X1	Y1	Z1	X2	Y2	Z2	X3	Y3	Z3	X4	Y4	Z4	X5	Y5	Z5	X6	Y6	Z6	X7	Y7	Z7	X8	Y8	Z8	X9	Y9	Z9	X10	Y10	Z10	X11	Y11	Z11	X12	Y12	Z12	X13	Y13	Z13	X14	Y14	Z14	X15	Y15	Z15	X16	Y16	Z16	X17	Y17	Z17	X18	Y18	Z18	X19	Y19	Z19	X20	Y20	Z20	X21	Y21	Z21	X22	Y22	Z22	X23	Y23	Z23	X24	Y24	Z24	X25	Y25	Z25	X26	Y26	Z26	X27	Y27	Z27	X28	Y28	Z28	X29	Y29	Z29	X30	Y30	Z30	X31	Y31	Z31	X32	Y32	Z32	X33	Y33	Z33	X34	Y34	Z34	X35	Y35	Z35	X36	Y36	Z36	X37	Y37	Z37	X38	Y38	Z38	X39	Y39	Z39	X40	Y40	Z40	X41	Y41	Z41	X42	Y42	Z42	X43	Y43	Z43	X44	Y44	Z44	X45	Y45	Z45	X46	Y46	Z46	X47	Y47	Z47	X48	Y48	Z48	X49	Y49	Z49	X50	Y50	Z50	X51	Y51	Z51	X52	Y52	Z52	X53	Y53	Z53	X54	Y54	Z54	X55	Y55	Z55	X56	Y56	Z56	X57	Y57	Z57	X58	Y58	Z58	X59	Y59	Z59	X60	Y60	Z60	X61	Y61	Z61	X62	Y62	Z62	X63	Y63	Z63	X64	Y64	Z64	
488	8.117	4.920011254230237E-14	1250.02225	5.863441087832831E-14	96.55976834564238	1316.67184	156.58785647582607	90.88297076741429	1359.61585	-134.1853576044186	64.76467516739672	1400.53477	142.60263910048022	60.13632508402785	1435.6762	-95.40122027194734	-70.892261465459	1194.68939	54.04300972943119	-73.20276974886603	1212.26011	-65.00087176137708	-65.49303045313117	1287.42702	6.826481861554079	-1.1971264766954164	1382.36844	18.03226717526382	67.69408367666	1481.18137	32.76861021451267	132.8988969292417	1570.10704	46.63282402706075	398.9518487229668	1597.80325	71.26232070436114	282.88579030111094	1703.76359	72.39591584563958	208.00222812485458	1649.32416	60.43294927597344	299.85530637524073	1519.24132	54.813457287506964	329.16357173138294	1735.15263	79.8268887401916	557.8884979122329	1838.67093	93.79205945655929	484.7784303294581	1772.73609	157.23800704109703	484.69559922020323	1784.05282	20.463400645314834	450.4617192271272	1819.84942	92.34158524105277	314.63202904496904	1675.05483	265.2524953931418	348.2546507236321	1724.19327	-110.3576499513017	327.67359497980937	1347.34613	265.5056569530442	313.2289048832623	1345.61884	200.1071116986709	387.5762143810237	1395.05509	-92.0358199144141	356.3425805094794	1394.51903	-32.70519847806034	440.2502432612346	1120.4159	197.94493626610972	487.4647137027366	1144.35972	207.23351405843755	297.2339768171344	1335.55291	230.7117219002401	444.3614753684959	1159.9649	16.13136094400363	494.5034113345129	1178.13123	22.885740382201305	347.9021706613836	1386.71644	-68.15337563395181	664.7053079743632	1075.08942	279.56086081541173	568.9162590394293	1052.63464	242.22039518328367	504.2476866604366	1095.57866	204.3472623653743	665.4238532922664	1064.24918	3.6369324768079423	561.1229897248909	1066.0956	17.67980280547414	500.4838566229672	1125.83602	32.32949254717809	14.261340649663538	1215.95293	177.67125413601934	295.7631098116594	885.20659	204.03283257865846	308.14817696268483	880.56077	120.94210816760886	335.85127286967116	915.76176	162.85289218206177	9.31017587054805	1245.13819	-177.93426597890033	348.09666142916063	974.60876	-215.34622752206715	365.1921186857219	974.19183	-132.8893642670119	383.3922267089737	1013.20477	-176.6184249412371	353.1415071685631	844.28767	170.115318891201	227.00548241857837	445.04533	174.72248480188262	241.25255461977633	445.28357	109.97392885219095	371.896685964825	918.56116	-181.97872600457458	32.97507396307958	672.63074	-175.39880378858922	46.402311975823906	664.88771	-110.93481841975856	182.72393431771067	360.22941	135.293062900401	361.64873572736064	340.63359	130.86519263488844	344.5498961192382	344.02861	213.7126342033165	376.6732348781539	339.85929	176.1058812338677	224.41486326751294	358.14475	143.92928171795302	464.8486028081786	330.15073	194.64323391958217	-53.000518667917845	635.52377	-127.74870201375896	76.8386219893563	516.45985	-90.60003604695093	65.92435018246317	507.8234	-174.12265916431573	88.59586403515135	495.31543	-131.7219706736996	-21.142654152808838	607.23195	-128.97784816819205	152.79460064135455	431.10788	-133.41930358914135	
489	8.133	4.920011254230237E-14	1250.02225	5.863441087832831E-14	98.74567221467942	1315.24236	155.76444220965809	89.3489457592465	1360.44972	-134.53094816927222	66.93905773524821	1399.28397	142.8774323302432	59.27675674608263	1436.27181	-94.75770685475847	-70.30329980521438	1194.45115	54.559589081672364	-74.15358930087558	1212.91529	-64.28078948412235	-65.33673168018652	1287.48658	7.939371711483531	-0.7214331336367383	1382.18975	18.877153159210565	68.45087307147925	1480.88356	33.29986549287621	133.9058455506639	1569.69011	46.72092061618826	400.0967137530556	1597.32676	69.29088801573596	284.13240234720007	1703.2871	71.19438402123976	209.10619948531638	1648.84767	59.895370659415704	300.8428407052592	1518.76482	53.673804308730126	330.44689089503663	1734.67613	78.20579264214581	558.8256670373694	1838.79006	91.2951276936569	486.08218928376493	1772.5574	154.89998329073336	485.6180847587731	1783.87413	18.13430304486326	451.42248919573	1819.55161	90.05811324763332	316.55728431334313	1674.93571	264.02577775236307	348.6149313029286	1723.12116	-112.05950146147578	328.2830105190277	1347.04833	265.30530988553585	313.8000359924477	1345.20191	199.86113902413032	387.6087272860814	1394.39991	-91.44108796176258	356.9021838896032	1394.39991	-31.852971317114367	440.2901050037359	1119.6416	198.45575175382004	487.4972342682387	1143.4663	207.828239583213	297.8051014984437	1335.2551	230.4657415652551	444.3882320694672	1159.60753	17.275186386522336	494.5831412473917	1177.7143	23.907379018066422	348.1717454119586	1386.29951	-67.36879884360405	664.6098766361126	1074.31512	280.6517271343435	568.835503627301	1051.86034	243.1434337676408	504.2655248719403	1094.74479	205.10980796427998	665.4196667402039	1063.77269	4.651222275229429	561.0731775657964	1065.67866	18.732377033928515	500.5179545009378	1125.41909	33.38940795263173	14.907456878570315	1213.21309	177.05133513442053	274.95431920232045	864.83647	195.9129678898296	286.3471136580461	860.72671	112.56631915507789	316.56024636946483	893.42611	154.78126233985898	9.39408590761316	1247.40153	-177.92692480190107	362.8484378899793	996.64661	-216.76136621227946	379.6921650353453	996.28924	-134.3265264882219	395.81964516719046	1036.73166	-177.56048595586077	332.28866826466043	824.45361	162.49892851308329	210.14475638204956	423.90091	165.93336783369864	225.26189915100485	424.19872	101.38777585155381	386.1392383387223	940.95638	-182.88881183903896	47.157310715501794	695.14507	-176.10277869101444	60.27984417257501	687.75942	-111.53861595820737	163.35420217130667	341.22921	124.25513129043149	341.51068645707574	315.31985	120.39420558204192	323.99229023575174	317.40452	203.20493360502934	356.23782346176546	312.93739	165.65114741961196	204.93919755304617	337.47682	133.13573904217955	443.8803511405138	299.59556	184.48010604734367	-38.120769787149776	655.53652	-129.65997260511477	94.6332831663282	539.92718	-92.00262793672822	84.9158035859852	531.58853	-175.67420222216234	107.45044061757685	519.43794	-133.15866044144738	-5.469416420101439	628.13812	-130.77742132695425	173.48791198292676	457.01724	-134.61055840724703	
490	8.15	4.920011254230237E-14	1250.02225	5.863441087832831E-14	100.30749227882016	1313.99156	155.30919631769706	88.25807301243867	1361.22402	-134.62638716796732	68.54965803135795	1398.21186	143.3142817696056	58.661583770209575	1436.86743	-94.00825220906236	-69.86013345553391	1194.15334	54.80974188039924	-74.78502960365998	1213.5109	-63.828698217098136	-65.15840814367583	1287.54615	8.800517361897164	-0.3296574880875909	1382.07063	19.71470439403417	69.11641001966584	1480.58575	33.907703719626134	134.730284083513	1569.33274	46.96216135332357	401.10625752575123	1596.61202	67.89950369319553	285.26573964822717	1702.75104	70.32115116810114	210.1042219568265	1648.37117	59.60219383280625	301.7024090432044	1518.16921	53.030290891541256	331.6095864761846	1734.08052	76.99691198030231	559.8262987484736	1838.43269	89.52247118794784	487.3728431965417	1772.02134	153.194969495178	486.6952929903875	1783.39764	16.452891325342392	452.53798185737736	1819.01556	88.4223271351446	318.6739540714375	1674.51878	263.0271945746212	349.06069923175863	1721.8108	-113.2888219139724	328.89241196992555	1346.63139	265.1049615854591	314.36382592463394	1344.72542	199.6990763866549	387.83268285750034	1393.50648	-90.61821908093745	357.53101372022525	1393.98298	-30.825568816718402	440.3079419826712	1118.68861	199.2183114410462	487.5533633376514	1142.39418	208.6364184495952	298.37623260762916	1334.83817	230.21976889071453	444.5225137392902	1159.01191	18.639814008091548	494.67179088230654	1177.05912	25.31028340922404	348.5561798805085	1385.64433	-66.44733757171534	664.4084976414786	1073.30257	281.986981154903	568.6414658096662	1050.84779	244.39477775113514	504.2230538898449	1093.73224	206.07847215566923	665.4097227514869	1062.87926	6.214619651838575	561.1088527562354	1064.96392	20.25748232006032	500.560970868376	1124.76391	34.83060320169841	15.203241712205454	1210.94975	176.56989201515154	255.46191370748016	848.39743	189.17659206818635	265.93166957884864	844.58548	105.74918792130637	298.2955904425288	875.08109	148.02547222681204	9.729740144194068	1249.72444	-177.8975588613358	375.771995909784	1017.85059	-217.57546123482987	392.2270956066616	1017.37409	-135.04780064468403	406.488057546571	1059.12687	-177.72632919594096	312.7978400822886	807.35939	156.22774257211827	191.0183953310366	406.74713	156.9460405841381	206.95997663284106	407.22362	92.64168933912856	399.42362232316634	962.27948	-182.9948989313075	63.20031465108116	712.71579	-176.81306927118942	76.01813712460714	705.92575	-112.14873683485035	141.84837188708414	326.57702	112.98803205773112	318.900898900712	294.29456	109.66468619846759	300.9246398873885	294.94974	192.39308026429006	333.2011304547564	290.24436	154.9688309555383	183.1213215361533	321.09734	122.0527272105207	420.2269014172872	273.26927	174.0820466878434	-20.670674908350357	669.8909	-131.473202618626	116.21134223434846	559.40387	-93.1587606101822	107.69067020144445	551.30347	-176.9792989194378	130.24890164862614	539.74849	-134.2503050296844	13.064195940186067	643.86242	-132.41130353727362	198.63592449340138	480.18675	-135.49664387666377	
491	8.167	4.920011254230237E-14	1250.02225	5.863441087832831E-14	101.33646443124007	1312.85989	155.14556279562927	87.473502649967	1362.17701	-134.35680475694784	69.5125583582164	1397.13975	143.9058526694442	58.153922907436055	1437.52261	-93.03801070520467	-69.52448687939743	1193.79597	54.839114248840616	-75.2266174083037	1213.9874	-63.61367522346736	-65.09494555770837	1287.48658	9.524792619090395	-0.10570834454473221	1381.95151	20.537565614414873	69.46989480730595	1480.40706	34.699621686973146	135.27362779716992	1568.97537	47.51701870772158	401.83629021959916	1595.77815	67.28693352904034	286.17985208267214	1702.15542	70.02063316449242	210.8977248970864	1647.89468	59.7138924979682	302.1675989238826	1517.51403	53.02871357907283	332.6296401391368	1733.36578	76.45199861462146	560.8227515679598	1837.65838	88.76409805278405	488.3766371930271	1771.18748	152.35268632294915	487.69907932642843	1782.6829	15.610614580989619	453.4961502468306	1818.18169	87.61832839294865	321.08224385986944	1673.74447	262.5614528807241	349.4933685469347	1720.32175	-113.88512475121627	329.61668722711875	1346.03578	265.0414989994916	314.790724947403	1344.1298	199.65186580670985	388.24071940208466	1392.49393	-89.48331212788636	358.1378200198495	1393.26824	-29.546436205127208	440.1668786095123	1117.55694	200.34745452956645	487.5418279481453	1141.20295	209.73462471295784	298.8870480953395	1334.30211	230.1799071482132	444.53617182660753	1158.17805	20.416657065863035	494.731074576656	1176.16569	27.04884203696264	349.04812646215794	1384.81047	-65.30508944166505	663.9952490455823	1072.05177	283.81104122049555	568.365101695311	1049.59699	246.1039780987529	504.05996575311997	1092.48145	207.45935944370524	665.227765708701	1061.5689	8.777616812426288	560.9106348144143	1063.89181	22.52312376242054	500.4760289041853	1123.87048	36.76793158447697	15.407776564344587	1209.1629	176.1650036676279	238.39302574041318	835.59166	184.21651391897183	247.9470842044238	831.89883	100.62444432289844	282.0495636958426	860.54803	142.84144493405466	10.614494298518252	1252.5834	-177.8624290562397	387.39281281408694	1038.69719	-217.99620329936275	403.1163025046482	1037.62508	-135.32116242573989	415.7787449232967	1080.68822	-177.1248872392659	295.0812521459703	793.66019	151.4223858833799	169.46906856546929	394.1796	148.59228276304924	186.12024277046845	394.89434	84.39228900620245	411.93234157885416	983.12609	-182.45013908983236	81.85193369383595	725.52156	-177.3796808107354	94.23550953971746	719.50583	-112.58423541783067	118.01817593981525	316.27284	102.19401692849547	294.0050160230142	278.15333	99.45387529282185	275.2808937647835	277.37903	182.03228749601772	307.7561476593154	272.49496	144.75225618536166	159.0629898932791	309.185	111.45014065932577	394.0046830084975	252.18440999999999	164.05113663117672	-0.1687985726950103	678.58691	-132.89260079278134	141.72595223443773	574.94948	-93.88594449493641	134.35644682105163	566.84909	-177.8171495422284	157.11344802327332	556.2471	-134.94392999393483	34.8174239197802	654.28572	-133.63667032167035	228.3844399112187	500.37818	-135.81112578343289	
